<?xml version="1.0" encoding="UTF-8"?><svg id="_レイヤー_2" xmlns="http://www.w3.org/2000/svg" viewBox="0 0 76.34 44.97"><defs><style>.cls-1{fill:#fff;}.cls-2{fill:#ccb72c;}</style></defs><g id="_レイヤー_1-2"><g><polygon class="cls-2" points="64.04 6.9 63.31 7.64 34.09 7.64 33.36 6.9 33.36 3.09 34.09 2.35 63.31 2.35 64.04 3.09 64.04 6.9"/><path class="cls-1" d="M38.51,6.03h-2.41v-.24h1.09v-1.47h-.87v-.23h1.96v.23h-.82v1.47h1.05v.24Z"/><path class="cls-1" d="M39.77,4.23v-.23h2.31s.08-.02,.12-.06l.19,.18c-.25,.42-.54,.82-.9,1.14l-.18-.17c.08-.07,.17-.15,.37-.38,.21-.25,.26-.35,.33-.48h-2.24Zm.28,1.88c.27-.17,.5-.31,.68-.78,.14-.37,.14-.69,.15-.96l.28,.05s.05,.02,.05,.04c0,.02,0,.03-.08,.07-.05,.47-.08,.81-.33,1.23-.14,.24-.25,.34-.53,.54l-.23-.19Z"/><path class="cls-1" d="M43.4,5.9c.16-.19,.33-.39,.5-.85,.15-.41,.2-.71,.23-.96l.28,.09s.08,.03,.08,.06c0,.04-.05,.05-.11,.06-.09,.44-.18,.82-.42,1.29-.1,.21-.17,.3-.31,.47l-.26-.15Zm1.89-1.77c.16,.21,.33,.43,.55,.86,.19,.39,.25,.61,.3,.79l-.27,.13c-.08-.28-.16-.59-.38-1.01-.18-.35-.32-.5-.42-.63l.23-.14Zm.49,.1c-.11-.13-.27-.25-.32-.29l.15-.15s.2,.16,.32,.29l-.15,.15Zm.35-.23c-.1-.12-.26-.24-.32-.29l.15-.15c.1,.08,.22,.19,.32,.29l-.15,.15Z"/><path class="cls-1" d="M48.03,3.85s.07,0,.07,.03c0,.02,0,.02-.06,.07v1.43h-.27v-1.55l.26,.03Zm.13,2.35c.38-.14,.52-.24,.65-.4,.19-.22,.33-.51,.33-1.02,0-.1,0-.54-.01-.63,0-.1,0-.12-.01-.38h.27s.07,.02,.07,.05c0,.01,0,.02-.05,.09,0,.94,0,1.26-.13,1.64-.17,.48-.6,.7-.91,.86l-.2-.21Z"/><path class="cls-1" d="M53.67,4.49v.23h-.66c-.02,.38-.03,.68-.18,1.01-.18,.39-.41,.51-.7,.65l-.23-.19c.31-.11,.53-.2,.7-.57,.13-.29,.15-.56,.17-.9h-.73v.8h-.25v-.8h-.72v-.23h.72v-.68l.27,.03s.06,0,.06,.04c0,.02,0,.02-.08,.06v.56h.72c0-.28,0-.56-.02-.74l.24,.02s.09,0,.09,.04c0,.03-.04,.05-.07,.07v.61h.66Z"/><path class="cls-1" d="M55.32,5.93v.22h-.26v-2.1h2.17v2.1h-.26v-.22h-1.65Zm1.65-1.65h-1.65v1.42h1.65v-1.42Z"/><path class="cls-1" d="M61.1,4.88c-.37,.37-.77,.77-2.15,1.26,0,0-.04,.09-.06,.09-.03,0-.04-.04-.06-.08l-.11-.27c.32-.06,.68-.12,1.28-.47,.57-.32,.8-.57,.99-.77l.11,.24Zm-1.72-.27c-.16-.2-.35-.38-.54-.56l.19-.19c.1,.09,.38,.33,.57,.57l-.22,.17Z"/><g><path class="cls-2" d="M36.52,11.5c0,.33-.15,.58-.45,.74-.15,.08-.36,.13-.63,.15-.07,0-.3,0-.66,0h-.59c-.06,0-.08-.01-.08-.04s.05-.04,.15-.04c.12,0,.19-.01,.21-.04,.02-.02,.03-.1,.03-.22v-2.63c0-.14,0-.23-.02-.25-.02-.04-.11-.06-.25-.06-.09,0-.13-.02-.13-.05,0-.03,.04-.05,.12-.05h.06s.07,.01,.1,.01h.95c.35,0,.61,.06,.78,.18,.2,.13,.3,.33,.3,.58,0,.22-.08,.4-.25,.54-.17,.14-.4,.23-.7,.27v.03c.3,.02,.53,.08,.69,.19,.25,.16,.37,.39,.37,.71Zm-.65-1.68c0-.31-.07-.52-.21-.62-.07-.06-.22-.08-.42-.08-.06,0-.14,0-.26,.01v1.41h.31c.18-.02,.33-.08,.43-.21,.1-.12,.15-.3,.15-.51Zm.14,1.63c0-.41-.17-.66-.5-.76-.1-.03-.28-.04-.54-.04v1.45c0,.09,0,.15,.03,.16,.03,.02,.12,.03,.27,.03,.22,0,.4-.07,.54-.21,.13-.14,.2-.35,.2-.63Z"/><path class="cls-2" d="M42.12,11.61s0,.09,0,.24c0,.15,0,.29,0,.42v.16c-.32-.02-.95-.03-1.89-.03h-.61c-.06,0-.09-.01-.09-.04,0-.02,0-.03,.03-.03,0,0,.07,0,.19-.01,.08,0,.14-.02,.15-.05,.02-.03,.03-.11,.03-.23v-2.75c0-.09-.01-.15-.04-.17-.03-.02-.12-.03-.27-.03-.05,0-.08-.01-.08-.04s.04-.04,.11-.04h2.06c.1,0,.19,0,.27-.02,0,.14,.02,.33,.04,.58l.02,.21s0,.04,0,.06c0,.03-.01,.05-.04,.05-.04,0-.06-.04-.08-.12-.06-.29-.16-.48-.3-.56-.1-.06-.38-.09-.82-.09h-.4v1.43h.12c.36,0,.59-.03,.66-.08,.08-.06,.13-.22,.16-.48,0-.07,.02-.1,.05-.1,.04,0,.05,.03,.05,.09s0,.14,0,.26c0,.11,0,.2,0,.26,0,.35,0,.59,.02,.72,0,.03,0,.06,0,.08,0,.04-.02,.06-.05,.06-.02,0-.04-.01-.05-.04,0-.03-.02-.12-.04-.27-.03-.19-.1-.31-.24-.36-.06-.02-.21-.03-.46-.03h-.22v1.63c.71,0,1.13-.01,1.26-.04,.21-.05,.34-.25,.37-.62,0-.08,.03-.12,.06-.12,.03,0,.05,.03,.05,.1Z"/><path class="cls-2" d="M47.4,11.5c0,.33-.15,.58-.45,.74-.15,.08-.36,.13-.63,.15-.07,0-.3,0-.66,0h-.59c-.06,0-.08-.01-.08-.04s.05-.04,.15-.04c.12,0,.19-.01,.21-.04,.02-.02,.03-.1,.03-.22v-2.63c0-.14,0-.23-.02-.25-.02-.04-.11-.06-.25-.06-.09,0-.13-.02-.13-.05,0-.03,.04-.05,.12-.05h.06s.07,.01,.1,.01h.95c.35,0,.61,.06,.78,.18,.2,.13,.3,.33,.3,.58,0,.22-.08,.4-.25,.54-.17,.14-.4,.23-.7,.27v.03c.3,.02,.53,.08,.69,.19,.25,.16,.37,.39,.37,.71Zm-.65-1.68c0-.31-.07-.52-.21-.62-.07-.06-.22-.08-.42-.08-.06,0-.14,0-.26,.01v1.41h.31c.19-.02,.33-.08,.43-.21,.1-.12,.15-.3,.15-.51Zm.14,1.63c0-.41-.17-.66-.5-.76-.1-.03-.28-.04-.54-.04v1.45c0,.09,0,.15,.03,.16,.03,.02,.12,.03,.27,.03,.22,0,.4-.07,.54-.21,.13-.14,.2-.35,.2-.63Z"/><path class="cls-2" d="M53.4,12.36s-.02,.04-.07,.04c-.03,0-.06,0-.09,0l-.62-.02-.62,.02s-.05,0-.07,0c-.06,0-.1-.02-.1-.05,0-.04,.04-.06,.13-.06,.29,0,.43-.03,.43-.09,0,0,0-.02,0-.04l-.04-.13-.02-.07c-.03-.1-.1-.32-.21-.67h-1.04c-.19,.52-.29,.82-.29,.9,0,.05,.02,.07,.06,.08,0,0,.09,0,.24,.02,.09,0,.14,.02,.14,.05,0,.03-.04,.05-.13,.05-.15,0-.32,0-.52-.02-.05,0-.1,0-.15,0s-.1,0-.15,.02c-.03,0-.05,0-.06,0-.05,0-.07-.01-.07-.04s.05-.05,.15-.05c.1,0,.18-.02,.22-.05,.05-.03,.08-.08,.11-.16,.42-1.2,.76-2.16,1.02-2.89,0-.04,.02-.08,.05-.13l.02-.09s.02-.05,.04-.05c0,0,.02,0,.02,.03,.04,.13,.14,.39,.29,.79,.12,.32,.41,1.11,.87,2.37,.03,.07,.06,.12,.1,.14,.04,.02,.12,.03,.25,.03,.08,0,.13,.02,.13,.05Zm-1.32-1.17c-.05-.15-.14-.39-.26-.72l-.23-.68c-.14,.36-.3,.83-.49,1.4h.99Z"/><path class="cls-2" d="M58.71,12.24c0,.14-.11,.2-.34,.2-.25,0-.45-.11-.59-.32-.06-.09-.1-.18-.12-.26-.02-.08-.04-.3-.08-.64-.02-.21-.09-.35-.2-.44-.11-.09-.3-.13-.55-.14v1.53c0,.06,.05,.11,.16,.12,.03,0,.1,0,.22,0,.04,0,.06,.01,.06,.04,0,.03-.03,.04-.08,.04h-1.14c-.07,0-.11-.01-.11-.04,0-.02,.05-.04,.14-.04,.15,0,.24-.02,.25-.06,.01-.02,.02-.08,.02-.19v-2.69c0-.13-.01-.21-.04-.23-.03-.03-.11-.04-.25-.04-.08,0-.12-.01-.12-.04,0-.03,.03-.05,.08-.05,0,0,.02,0,.04,0h.65c.06,.01,.16,.01,.27,0,.13,0,.22-.01,.27-.01,.3,0,.54,.07,.72,.2,.18,.13,.27,.32,.27,.55s-.09,.41-.27,.56c-.18,.15-.43,.23-.74,.26-.03,0-.05,0-.05,.01,0,.01,.02,.02,.05,.02,.34,.06,.58,.18,.7,.36,.13,.18,.21,.51,.26,.98,.03,.27,.12,.4,.27,.4,.05,0,.07,0,.07-.03,0,0,0,0,0,0-.02-.04-.02-.06-.02-.09,0-.07,.04-.1,.11-.1,.08,0,.12,.04,.12,.12Zm-1.01-2.44c0-.46-.2-.7-.6-.7-.11,0-.18,.01-.22,.04-.04,.03-.06,.08-.06,.16v1.24c.31,0,.54-.05,.67-.17,.14-.12,.21-.31,.21-.57Z"/><path class="cls-2" d="M62.71,12.35s-.02,.04-.06,.04h-.05s-.24-.01-.66-.01c-.08,0-.16,0-.24,0-.04,0-.11,0-.2,0-.04,0-.06-.01-.06-.04,0-.03,.04-.04,.13-.04,.13,0,.21-.02,.23-.05,.02-.03,.03-.12,.03-.28v-2.57c0-.16,0-.25-.02-.27-.02-.03-.11-.05-.27-.06-.06,0-.09-.01-.09-.03,0-.03,.02-.04,.06-.04h.66s.14,0,.29,0h.19c.05,0,.08,0,.08,.04,0,.02-.07,.04-.22,.05-.08,0-.13,.02-.15,.04-.02,.03-.03,.09-.03,.2v2.6c0,.19,0,.29,.02,.3,.04,.04,.14,.06,.32,.06,.04,0,.05,.01,.05,.04Z"/></g><g><path class="cls-2" d="M30.3,25.86v-.44h-10.45v-4.05h9.59c.27,0,.62-.15,.62-.55s-.16-.66-.78-1.28c-1.05-1.09-1.48-1.31-1.91-1.31-.08,0-.23,0-.47,.26-.47,.47-1.29,1.53-1.68,2h-5.38v-4.34h13.77c.31,0,.66-.11,.66-.4,0-.15-.04-.29-.12-.44-.2-.26-1.13-1.24-1.21-1.31-.7-.77-.78-.84-1.17-.84-.35,0-.47,.11-1.33,1.06-.12,.15-.66,.91-.82,1.06H2.07l.51,.87h14.31v4.34H5.23l.59,.87h11.08v4.05H0l.55,.87H29.71c.55,0,.59-.36,.59-.44Z"/><path class="cls-2" d="M16.29,9.77s0,.03-.02,.02c-.26-.15-1.34-.72-2.94-.9-.01,0-.02,.02,0,.02,1.55,.72,4,2.11,4.44,4.68,0,.01,.01,.01,.02,0,2.29-2.11,1.44-4.84,1.44-4.84C18.19,5.68,11.35,3.32,13.92,.02c0,0,0-.02-.01-.02-2.72,.47-4.03,4.75-.14,6.53,.01,0,0,.03,0,.02-.39-.09-1.66-.43-2.8-1.26,0,0-.02,0-.02,.01,.6,2.2,4.23,3.05,5.36,4.47Z"/><path class="cls-2" d="M12.13,12.6s.25,1.27,1.36,1.77c2.03,.92,4.24-.73,4.24-.73,0,0-2.03,.48-3.62-1-1.36-1.26-1.33-1.79-1.33-1.79,0,0-.22,.46,.27,1.28,.43,.72,1.06,1.13,1.06,1.13,0,0-.71-.31-1.29-.99-.44-.51-.75-1.15-.75-1.15,0,0-.09,1.03,.92,1.93,1.12,.99,1.83,.79,1.83,.79,0,0-1.44,.49-2.7-1.24Z"/><path class="cls-2" d="M18.05,14.02c.18,.01,.86,.04,1.77-.69,.79-.63,1.34-.82,2.05-.93,.19-.03,.67-.04,.88,.32,0,0,.13-.52-.6-.79v-.06c.01-.15-.03-.5-.56-.69-.26-.09-.54-.13-.8-.17,1.24-.82,1.95-2.1,1.95-2.1,1.36-2.23-.64-6.54,2.59-6.86,0,0,.01-.01,0-.02-1.72-1.28-4.83,.28-3.75,3.42,0,.01-.01,.02-.02,0-.16-.27-.65-1.17-.79-2.25,0,0-.01-.01-.02,0-.91,1.52,.55,4.02,.36,5.41,0,.01-.02,.01-.02,0-.06-.22-.32-1.14-1.07-2.13,0,0-.02,0-.02,0,.43,.81,1.97,4.4-1.97,7.54Z"/><path class="cls-2" d="M64.72,18.06c.24-.25,.51-.45,.82-.61,.31-.15,.66-.26,1.06-.32-.36-.19-.8-.21-1.21-.11-.41,.1-.8,.33-1.08,.64-.15,.16-.25,.3-.37,.43-.12,.14-.24,.26-.37,.39-.13,.12-.27,.23-.42,.32-.15,.09-.32,.17-.52,.2,.18,.1,.4,.1,.61,.07,.21-.04,.41-.12,.59-.22,.18-.1,.35-.23,.5-.37,.15-.14,.29-.3,.4-.42Z"/><path class="cls-2" d="M65.87,17.56c-.33,.15-.61,.37-.84,.63-.12,.14-.21,.26-.31,.38-.1,.12-.2,.24-.3,.34-.11,.11-.21,.21-.34,.3-.12,.08-.26,.16-.43,.15,.14,.12,.35,.12,.53,.09,.18-.04,.35-.11,.5-.21,.15-.09,.29-.21,.41-.33,.12-.12,.24-.26,.34-.37,.2-.23,.42-.44,.66-.63,.24-.19,.5-.36,.82-.47-.34-.11-.71-.03-1.03,.11Z"/><path class="cls-2" d="M65.67,18.71c-.13,.12-.25,.25-.45,.27,.08,.07,.2,.06,.31,.05,.1-.02,.2-.07,.29-.12,.18-.1,.33-.26,.45-.39,.12-.13,.25-.26,.38-.39,.13-.12,.27-.25,.43-.37-.2,0-.4,.07-.58,.17-.18,.1-.33,.23-.47,.38-.13,.15-.24,.28-.36,.41Z"/><path class="cls-2" d="M71.58,13.95c-.74-.32-1.57-.59-2.47-.74-1.01-.19-2.07-.22-3.07-.16-2.01,.15-3.08,.6-4.33,1.23-1.26,.64-2.3,1.41-3.21,2.23-.91,.85-1.63,1.77-2.19,2.73-.17,.29-.32,.58-.46,.87-.17-.01-.34-.02-.52-.02-.23,0-.64,.02-1.22,.07-.52,.02-.93,.03-1.22,.03l-2.9-.08c-.09-.02-.15-.03-.2-.03-.23,0-.35,.09-.35,.26,0,.16,.18,.23,.55,.23,.62,.02,1,.1,1.12,.24,.12,.14,.19,.56,.19,1.26v14.44c0,.34,0,.6-.03,.77-.05-.11-.1-.23-.15-.38-2.08-6.8-3.38-11.05-3.9-12.74-.67-2.16-1.1-3.58-1.29-4.26-.03-.1-.07-.16-.11-.16-.07,0-.13,.1-.17,.29l-.09,.48c-.1,.26-.17,.49-.2,.69-.88,2.93-1.96,6.59-3.24,10.96-.22-1.05-.73-1.88-1.53-2.49-.74-.56-1.77-.89-3.1-.99v-.16c1.34-.19,2.38-.67,3.12-1.43,.74-.76,1.11-1.73,1.11-2.92,0-1.36-.45-2.4-1.35-3.11-.77-.61-1.94-.92-3.51-.94h-4.25c-.13,0-.34,.06-.5,.01h-.26c-.36,0-.54,.08-.54,.25,0,.18,.26,.19,.66,.19,.64,.02,1.01,.13,1.11,.34,.06,.12,.09,.57,.09,1.33v14.15c0,.66-.05,1.06-.14,1.19-.09,.13-.4,.2-.93,.2-.42,0-.64,.06-.67,.19-.01,.03-.02,.06-.02,.09v.05c0,.11,.09,.19,.19,.19h7.21s.09,.02,.14,.02c.04,0,.1,0,.16-.02h2.98c.29,.01,.57,.02,.83,.02,.1,0,.18,0,.25-.02h.13c.11,0,.19-.09,.19-.19v-.05c0-.09-.07-.17-.16-.19-.11-.04-.26-.07-.48-.08-.68-.05-1.05-.09-1.09-.1-.17-.05-.26-.2-.26-.45,0-.23,.13-.83,.4-1.78,.12-.29,.21-.6,.27-.93,.18-.6,.39-1.3,.64-2.1h4.66c.51,1.85,.83,3.05,.96,3.59l.11,.36,.18,.69c.03,.12,.04,.19,.04,.2,0,.29-.64,.44-1.92,.46-.35,0-.54,.08-.58,.24,0,.02-.02,.05-.02,.08v.05c0,.11,.09,.19,.19,.19h.06c.05,.01,.12,.02,.19,.02s.14,0,.21-.02h8.36c.11,0,.19-.09,.19-.19v-.05s0,0,0,0,0,0,0,0c0-.14-.09-.21-.28-.21-.54-.02-.87-.03-1-.05-.46-.09-.7-.3-.7-.65v-8.24c1.15,.03,1.98,.28,2.49,.74,.51,.46,.81,1.25,.89,2.37,.16,1.85,.28,2.69,.36,3.14,.08,.45,.26,.92,.53,1.41,.61,1.08,1.45,1.67,2.5,1.72,.02,0,.03,.01,.05,.01h3.38c.11,0,.19-.09,.19-.19v-.05s0,0,0,0c0,0,0,0,0-.01,0-.15-.06-.22-.18-.22-.6-.03-.96-.15-1.08-.34-.06-.09-.08-.63-.08-1.62v-7.65c.2-.05,.4-.11,.59-.17,.35-.11,.7-.25,1.06-.4h0c4.96-2.01,6.72-7.06,6.72-7.06,1.03-3.1-.74-4.15-.74-4.15-1.49-.85-3.1,.78-3.1,.78,1.66-.95,2.44-.36,2.44-.36,2.76,1.88-.86,6.49-2.14,7.96-.29,.31-.61,.61-.95,.89-.87,.68-1.63,1.12-2.37,1.46,0,0,0,0,0,0,0,0,0,0,0,0-.41,.19-.81,.34-1.22,.49-.09,.03-.19,.06-.29,.09v-5.86c0-.59,.03-.96,.09-1.1,.06-.14,.23-.22,.51-.24,.49-.03,.74-.12,.74-.25,0-.15-.09-.22-.27-.22l-.63,.03c-.48-.02-.8-.03-.96-.03h-2.24c-.13,0-.2,.07-.2,.21,0,.11,.11,.17,.32,.19,.54,.03,.85,.14,.91,.31,.06,.1,.08,.59,.08,1.44v5.8c-.06,0-.12,.01-.18,.02-.73,.04-1.48-.01-2.15-.22-.21-.06-.41-.14-.59-.23,.2-.14,.39-.29,.57-.46,.81-.79,1.22-1.8,1.22-3.02s-.4-2.22-1.19-2.94c-.45-.41-.99-.7-1.62-.88,.13-.25,.27-.49,.42-.73,.57-.91,1.29-1.77,2.17-2.53,.9-.76,1.91-1.47,3.08-2.02,1.15-.55,2.1-.91,3.71-.99,1.6-.09,3.19,.22,4.41,.85,4.01,1.78,3.69,7,3.69,7-.31,9.86-6.49,14.71-6.49,14.71-.36,.3-.74,.58-1.13,.86-.6,.42-1.22,.83-1.87,1.18-.64,.36-1.31,.69-1.98,.99-.33,.16-.68,.29-1.03,.43-.35,.13-.69,.27-1.05,.38-1.41,.48-2.86,.87-4.34,1.14-.37,.06-.74,.14-1.1,.2l-.54,.09h-.07s-.01,.01-.02,.01c0,0,0,0-.02,0h-.13s-.28,.04-.28,.04c-.75,.06-1.51,.09-2.27,.11-1.53,.05-3.06,.04-4.59-.03-1.53-.06-3.06-.17-4.58-.34-3.05-.33-6.06-.89-9.01-1.72-2.94-.83-5.8-1.95-8.49-3.43-1.98-1.07-3.84-2.37-5.57-3.85h9.57c.2,0,.9,0,.9-.58v-.29h-10.52c.08-.4,.27-2.44,.31-2.92,.16-.07,.97-.47,1.17-.55,.12-.07,.31-.22,.31-.47,0-.4-.31-.4-.97-.47l-3.71-.36c.04,.73,.04,1.06,.04,1.46s0,1.71-.39,3.32H1.91l.58,.87h13.81c-.78,2.19-2.38,4.52-5.54,6.23-2.42,1.35-5.15,2.41-8.66,3.32l.08,.33c3.74-.51,8.46-1.49,12.09-3.68,3.16-1.93,4.17-3.94,4.88-5.36l.25-.63c1.5,1.83,3.28,3.46,5.23,4.86,2.61,1.87,5.53,3.32,8.56,4.41,3.03,1.09,6.19,1.83,9.37,2.28,1.59,.23,3.19,.38,4.8,.48,1.61,.09,3.21,.11,4.82,.07,.81-.03,1.61-.07,2.43-.14l.31-.03,.16-.02s.11-.01,.11-.01h.08s.62-.12,.62-.12c.42-.07,.81-.15,1.21-.23,1.6-.34,3.18-.78,4.72-1.37,3.08-1.16,6-2.93,8.31-5.31,.6-.61,1.15-1.27,1.66-1.95h0s0,0,0-.01c.47-.64,.91-1.3,1.3-1.99,.11-.19,.21-.37,.31-.56,.45-.76,.82-1.54,1.14-2.32,.99-2.38,1.47-4.56,1.67-6.41,0-.01,0-.03,0-.04,.08-.78,.12-1.5,.12-2.14-.11-5.75-3.89-7.92-4.76-8.35Zm-36.27,6.79c.52-.05,.91-.08,1.16-.08,.93,0,1.56,.15,1.9,.44,.64,.56,.96,1.67,.96,3.35,0,1.17-.23,2.09-.69,2.76-.46,.67-1.1,1.02-1.93,1.06l-1.2,.05h-.2v-7.59Zm0,8.14c1.18,0,1.98,.08,2.42,.24,1.48,.52,2.22,1.88,2.22,4.08,0,1.48-.3,2.61-.89,3.37s-1.4,1.15-2.4,1.15c-.67,0-1.08-.06-1.22-.18-.09-.07-.13-.36-.13-.86v-7.79Zm7.61,2.97c.85-3.08,1.58-5.59,2.19-7.52l1.05,3.63c.55,1.81,.94,3.11,1.17,3.89h-4.41Zm10.54-10.12c0-.4,.09-.68,.26-.84,.17-.16,.5-.24,.98-.24,.32,0,.61,.04,.87,.12-.19,.49-.35,1-.45,1.51-.22,1.05-.22,2.15,.15,3.24,.2,.54,.49,1.09,.98,1.59,.09,.09,.18,.17,.28,.26-.02,.03-.04,.05-.07,.08-.62,.63-1.62,.93-3.02,.92v-6.64Zm4.84,6.57c.83,.25,1.72,.29,2.53,.23,.02,0,.03,0,.05,0v7.54c0,.86-.04,1.36-.11,1.51-.05,.09,0,.15-.06,.2-.68-.02-1.08-.73-1.2-2.15-.19-2.54-.57-3.97-1.14-4.95-.57-.97-1.62-1.61-3.15-1.93-.15,0-.22-.03-.22-.1,.01-.04,.09-.06,.22-.08,.84-.08,1.57-.29,2.2-.61,.28,.14,.57,.26,.89,.35Zm-.89-3.9c0,1.03-.17,1.84-.49,2.45-.39-.42-.63-.91-.79-1.4-.3-1-.26-2.02-.01-3.01,.09-.39,.22-.77,.37-1.14,.62,.61,.93,1.64,.93,3.1Z"/></g></g></g></svg>